<svg xmlns="http://www.w3.org/2000/svg" width="675.389" height="179.844" viewBox="0 0 675.389 179.844"><g transform="translate(0)"><path d="M454.833,357.723l5.737-54.432-27.217-2.805,3.782-35.883,100.812,10.619-3.662,35.759-27.217-2.807-5.735,54.432Z" transform="translate(-433.353 -264.603)" fill="#f7ae33"/><path d="M482,357.93l29.292-90.68h71.64l29.412,90.68h-47.23l-3.54-11.716h-28.8l-3.784,11.716Zm55.774-36.858h18.8L550.833,303.5a105.818,105.818,0,0,1-3.66-15.746,105.179,105.179,0,0,1-3.662,15.746Z" transform="translate(-381.068 -261.758)" fill="#f7ae33"/><path d="M548,357.93V267.25h46.622v58.339H633.31V357.93Z" transform="translate(-310.134 -261.758)" fill="#f7ae33"/><path d="M594.412,357.93V267.25h46.62v58.339h38.688V357.93Z" transform="translate(-260.25 -261.758)" fill="#f7ae33"/><path d="M742.12,357.93h-101.3V334.01h55.652v-8.056H640.823V305.206h55.652v-8.422H640.823V267.25h101.3Z" transform="translate(-210.368 -261.758)" fill="#f7ae33"/><path d="M816.313,357.93H769.934v-15.5q0-6.588.61-13.546-3.05,4.883-5.369,7.934L748.821,357.93H695l31.854-37.591q-28.314-3.293-28.314-27.46,0-25.629,30.389-25.63h87.386Zm-46.379-47.355V292.515H760.05q-8.67,0-12.083,1.463-3.909,1.833-3.907,6.714,0,5.49,4.029,7.689t12.937,2.2Z" transform="translate(-152.141 -261.758)" fill="#f7ae33"/></g><g transform="translate(4.577 120.161)"><path d="M435.559,376.339V324.044h40.186q30.054,0,30.055,24.563,0,10.208-5.7,17.244a25.252,25.252,0,0,1-11.822,8.237q-6.548,2.253-16.964,2.251Zm26.885-16.046c.469.048,1.172.068,2.112.068q14,0,14-9.5,0-4.787-3.166-6.828t-10.135-2.04q-1.83,0-2.815.07Z" transform="translate(-435.559 -320.878)" fill="#e02d86"/><path d="M531.19,376.339H472.772v-13.8h32.095V357.9H472.772V345.933h32.095v-4.855H472.772V324.044H531.19Z" transform="translate(-395.563 -320.878)" fill="#e02d86"/><path d="M578.906,325.765v15.694a186.318,186.318,0,0,0-21.047-1.689,45.713,45.713,0,0,0-7.741.423q-2.465.492-2.463,2.04,0,1.9,3.1,2.253l9.291.141q10.98.208,15.907,3.519,5.206,3.448,5.208,11.191,0,19.706-31.672,19.706a157.973,157.973,0,0,1-27.52-2.463v-14.71a167.361,167.361,0,0,0,25.97,2.463q5.63,0,5.631-2.112,0-1.967-3.448-2.181-4.012,0-12.739-.633-9.01-1.127-13.233-4.892t-4.222-11.086q0-10.485,8.164-15.343t25.2-4.857A138.342,138.342,0,0,1,578.906,325.765Z" transform="translate(-344.885 -321.753)" fill="#e02d86"/><path d="M563.961,376.219l3.309-31.391-15.7-1.618,2.183-20.692,58.136,6.123-2.112,20.623-15.7-1.62-3.307,31.391Z" transform="translate(-310.868 -322.518)" fill="#e02d86"/><path d="M579.628,376.339l16.893-52.295h41.315L654.8,376.339H627.56l-2.041-6.758H608.907l-2.183,6.758Zm32.165-21.256h10.839l-3.307-10.133a61.132,61.132,0,0,1-2.112-9.081,60.87,60.87,0,0,1-2.11,9.081Z" transform="translate(-280.716 -320.878)" fill="#e02d86"/><path d="M684.694,376.339H659.216V360.01q0-2.465.351-8.164a41.943,41.943,0,0,1-4.643,7.108l-13.866,17.385H617.689V324.044h25.478v22.1q2.319-4.152,4.71-7.6l10.046-14.5h26.771Z" transform="translate(-239.809 -320.878)" fill="#e02d86"/><path d="M654.394,376.339V324.044h40.188q30.051,0,30.051,24.563,0,10.208-5.7,17.244a25.259,25.259,0,0,1-11.824,8.237q-6.548,2.253-16.964,2.251Zm26.885-16.046c.469.048,1.172.068,2.112.068q14.005,0,14-9.5,0-4.787-3.166-6.828t-10.135-2.04q-1.833,0-2.815.07Z" transform="translate(-200.359 -320.878)" fill="#e02d86"/><path d="M718.356,324.044v29.844q0,4.644.915,6.4,1.124,2.11,4.293,2.11t4.295-2.11q.915-1.759.915-6.4V324.044h26.885v31.885q0,12.035-7.388,17.032t-24.706,5q-19.706,0-27.1-6.826-5-4.646-5-15.2V324.044Z" transform="translate(-160.509 -320.878)" fill="#e02d86"/><path d="M732.235,381.581l-7.249-51.731,44.624-6.334a47.16,47.16,0,0,1,6.052-.421q17.1,0,19.356,16.046a23.743,23.743,0,0,1,.282,3.589,18.923,18.923,0,0,1-6.16,14.463q-6.159,5.736-17.491,7.355l-14.355,2.042,1.548,11.26Zm23.016-29.559,5-.7a19.392,19.392,0,0,0,6.861-2.006,4.273,4.273,0,0,0,2.147-3.907,8.832,8.832,0,0,0-.07-1.056q-.564-3.8-5.42-3.8a36.578,36.578,0,0,0-4.434.353l-5.561.774Z" transform="translate(-124.488 -321.898)" fill="#e02d86"/></g></svg>